<svg xmlns="http://www.w3.org/2000/svg" xmlns:xlink="http://www.w3.org/1999/xlink" version="1.1" class="marks" width="721" height="377" viewBox="0 0 721 377"><rect width="721" height="377" fill="white"/><g fill="none" stroke-miterlimit="10" transform="translate(44,27)"><g class="mark-group role-frame root" role="graphics-object" aria-roledescription="group mark container"><g transform="translate(0,0)"><path class="background" aria-hidden="true" d="M0.5,0.5h600v300h-600Z" stroke="#ddd"/><g><g class="mark-group role-axis" aria-hidden="true"><g transform="translate(0.5,0.5)"><path class="background" aria-hidden="true" d="M0,0h0v0h0Z" pointer-events="none"/><g><g class="mark-rule role-axis-grid" pointer-events="none"><line transform="translate(0,300)" x2="600" y2="0" stroke="#ddd" stroke-width="1" opacity="1"/><line transform="translate(0,273)" x2="600" y2="0" stroke="#ddd" stroke-width="1" opacity="1"/><line transform="translate(0,245)" x2="600" y2="0" stroke="#ddd" stroke-width="1" opacity="1"/><line transform="translate(0,218)" x2="600" y2="0" stroke="#ddd" stroke-width="1" opacity="1"/><line transform="translate(0,191)" x2="600" y2="0" stroke="#ddd" stroke-width="1" opacity="1"/><line transform="translate(0,164)" x2="600" y2="0" stroke="#ddd" stroke-width="1" opacity="1"/><line transform="translate(0,136)" x2="600" y2="0" stroke="#ddd" stroke-width="1" opacity="1"/><line transform="translate(0,109)" x2="600" y2="0" stroke="#ddd" stroke-width="1" opacity="1"/><line transform="translate(0,82)" x2="600" y2="0" stroke="#ddd" stroke-width="1" opacity="1"/><line transform="translate(0,55)" x2="600" y2="0" stroke="#ddd" stroke-width="1" opacity="1"/><line transform="translate(0,27)" x2="600" y2="0" stroke="#ddd" stroke-width="1" opacity="1"/><line transform="translate(0,0)" x2="600" y2="0" stroke="#ddd" stroke-width="1" opacity="1"/></g></g><path class="foreground" aria-hidden="true" d="" pointer-events="none" display="none"/></g></g><g class="mark-group role-axis" role="graphics-symbol" aria-roledescription="axis" aria-label="X-axis titled 'year' for a discrete scale with 13 values: 2010, 2011, 2012, 2013, 2014, ending with 2022"><g transform="translate(0.5,300.5)"><path class="background" aria-hidden="true" d="M0,0h0v0h0Z" pointer-events="none"/><g><g class="mark-rule role-axis-tick" pointer-events="none"><line transform="translate(23,0)" x2="0" y2="5" stroke="#888" stroke-width="1" opacity="1"/><line transform="translate(69,0)" x2="0" y2="5" stroke="#888" stroke-width="1" opacity="1"/><line transform="translate(115,0)" x2="0" y2="5" stroke="#888" stroke-width="1" opacity="1"/><line transform="translate(161,0)" x2="0" y2="5" stroke="#888" stroke-width="1" opacity="1"/><line transform="translate(207,0)" x2="0" y2="5" stroke="#888" stroke-width="1" opacity="1"/><line transform="translate(253,0)" x2="0" y2="5" stroke="#888" stroke-width="1" opacity="1"/><line transform="translate(300,0)" x2="0" y2="5" stroke="#888" stroke-width="1" opacity="1"/><line transform="translate(346,0)" x2="0" y2="5" stroke="#888" stroke-width="1" opacity="1"/><line transform="translate(392,0)" x2="0" y2="5" stroke="#888" stroke-width="1" opacity="1"/><line transform="translate(438,0)" x2="0" y2="5" stroke="#888" stroke-width="1" opacity="1"/><line transform="translate(484,0)" x2="0" y2="5" stroke="#888" stroke-width="1" opacity="1"/><line transform="translate(530,0)" x2="0" y2="5" stroke="#888" stroke-width="1" opacity="1"/><line transform="translate(576,0)" x2="0" y2="5" stroke="#888" stroke-width="1" opacity="1"/></g><g class="mark-text role-axis-label" pointer-events="none"><text text-anchor="end" transform="translate(22.57692307692309,7) rotate(270) translate(0,3)" font-family="sans-serif" font-size="10px" fill="#000" opacity="1">2010</text><text text-anchor="end" transform="translate(68.73076923076924,7) rotate(270) translate(0,3)" font-family="sans-serif" font-size="10px" fill="#000" opacity="1">2011</text><text text-anchor="end" transform="translate(114.8846153846154,7) rotate(270) translate(0,3)" font-family="sans-serif" font-size="10px" fill="#000" opacity="1">2012</text><text text-anchor="end" transform="translate(161.03846153846155,7) rotate(270) translate(0,3)" font-family="sans-serif" font-size="10px" fill="#000" opacity="1">2013</text><text text-anchor="end" transform="translate(207.1923076923077,7) rotate(270) translate(0,3)" font-family="sans-serif" font-size="10px" fill="#000" opacity="1">2014</text><text text-anchor="end" transform="translate(253.34615384615387,7) rotate(270) translate(0,3)" font-family="sans-serif" font-size="10px" fill="#000" opacity="1">2015</text><text text-anchor="end" transform="translate(299.5,7) rotate(270) translate(0,3)" font-family="sans-serif" font-size="10px" fill="#000" opacity="1">2016</text><text text-anchor="end" transform="translate(345.6538461538462,7) rotate(270) translate(0,3)" font-family="sans-serif" font-size="10px" fill="#000" opacity="1">2017</text><text text-anchor="end" transform="translate(391.8076923076923,7) rotate(270) translate(0,3)" font-family="sans-serif" font-size="10px" fill="#000" opacity="1">2018</text><text text-anchor="end" transform="translate(437.96153846153845,7) rotate(270) translate(0,3)" font-family="sans-serif" font-size="10px" fill="#000" opacity="1">2019</text><text text-anchor="end" transform="translate(484.11538461538464,7) rotate(270) translate(0,3)" font-family="sans-serif" font-size="10px" fill="#000" opacity="1">2020</text><text text-anchor="end" transform="translate(530.2692307692307,7) rotate(270) translate(0,3)" font-family="sans-serif" font-size="10px" fill="#000" opacity="1">2021</text><text text-anchor="end" transform="translate(576.4230769230769,7) rotate(270) translate(0,3)" font-family="sans-serif" font-size="10px" fill="#000" opacity="1">2022</text></g><g class="mark-rule role-axis-domain" pointer-events="none"><line transform="translate(0,0)" x2="600" y2="0" stroke="#888" stroke-width="1" opacity="1"/></g><g class="mark-text role-axis-title" pointer-events="none"><text text-anchor="middle" transform="translate(300,42.24609375)" font-family="sans-serif" font-size="11px" font-weight="bold" fill="#000" opacity="1">year</text></g></g><path class="foreground" aria-hidden="true" d="" pointer-events="none" display="none"/></g></g><g class="mark-group role-axis" role="graphics-symbol" aria-roledescription="axis" aria-label="Y-axis titled 'Sum of cases' for a linear scale with values from 0 to 110"><g transform="translate(0.5,0.5)"><path class="background" aria-hidden="true" d="M0,0h0v0h0Z" pointer-events="none"/><g><g class="mark-rule role-axis-tick" pointer-events="none"><line transform="translate(0,300)" x2="-5" y2="0" stroke="#888" stroke-width="1" opacity="1"/><line transform="translate(0,273)" x2="-5" y2="0" stroke="#888" stroke-width="1" opacity="1"/><line transform="translate(0,245)" x2="-5" y2="0" stroke="#888" stroke-width="1" opacity="1"/><line transform="translate(0,218)" x2="-5" y2="0" stroke="#888" stroke-width="1" opacity="1"/><line transform="translate(0,191)" x2="-5" y2="0" stroke="#888" stroke-width="1" opacity="1"/><line transform="translate(0,164)" x2="-5" y2="0" stroke="#888" stroke-width="1" opacity="1"/><line transform="translate(0,136)" x2="-5" y2="0" stroke="#888" stroke-width="1" opacity="1"/><line transform="translate(0,109)" x2="-5" y2="0" stroke="#888" stroke-width="1" opacity="1"/><line transform="translate(0,82)" x2="-5" y2="0" stroke="#888" stroke-width="1" opacity="1"/><line transform="translate(0,55)" x2="-5" y2="0" stroke="#888" stroke-width="1" opacity="1"/><line transform="translate(0,27)" x2="-5" y2="0" stroke="#888" stroke-width="1" opacity="1"/><line transform="translate(0,0)" x2="-5" y2="0" stroke="#888" stroke-width="1" opacity="1"/></g><g class="mark-text role-axis-label" pointer-events="none"><text text-anchor="end" transform="translate(-7,303)" font-family="sans-serif" font-size="10px" fill="#000" opacity="1">0</text><text text-anchor="end" transform="translate(-7,275.7272727272727)" font-family="sans-serif" font-size="10px" fill="#000" opacity="1">10</text><text text-anchor="end" transform="translate(-7,248.45454545454544)" font-family="sans-serif" font-size="10px" fill="#000" opacity="1">20</text><text text-anchor="end" transform="translate(-7,221.1818181818182)" font-family="sans-serif" font-size="10px" fill="#000" opacity="1">30</text><text text-anchor="end" transform="translate(-7,193.9090909090909)" font-family="sans-serif" font-size="10px" fill="#000" opacity="1">40</text><text text-anchor="end" transform="translate(-7,166.63636363636363)" font-family="sans-serif" font-size="10px" fill="#000" opacity="1">50</text><text text-anchor="end" transform="translate(-7,139.36363636363637)" font-family="sans-serif" font-size="10px" fill="#000" opacity="1">60</text><text text-anchor="end" transform="translate(-7,112.0909090909091)" font-family="sans-serif" font-size="10px" fill="#000" opacity="1">70</text><text text-anchor="end" transform="translate(-7,84.81818181818181)" font-family="sans-serif" font-size="10px" fill="#000" opacity="1">80</text><text text-anchor="end" transform="translate(-7,57.54545454545453)" font-family="sans-serif" font-size="10px" fill="#000" opacity="1">90</text><text text-anchor="end" transform="translate(-7,30.27272727272728)" font-family="sans-serif" font-size="10px" fill="#000" opacity="1">100</text><text text-anchor="end" transform="translate(-7,3)" font-family="sans-serif" font-size="10px" fill="#000" opacity="1">110</text></g><g class="mark-rule role-axis-domain" pointer-events="none"><line transform="translate(0,300)" x2="0" y2="-300" stroke="#888" stroke-width="1" opacity="1"/></g><g class="mark-text role-axis-title" pointer-events="none"><text text-anchor="middle" transform="translate(-27.6845703125,150) rotate(-90) translate(0,-2)" font-family="sans-serif" font-size="11px" font-weight="bold" fill="#000" opacity="1">Sum of cases</text></g></g><path class="foreground" aria-hidden="true" d="" pointer-events="none" display="none"/></g></g><g class="mark-rect role-mark marks" role="graphics-object" aria-roledescription="rect mark container"><path aria-label="year: 2010; Sum of cases: 89; type: total" role="graphics-symbol" aria-roledescription="bar" d="M2.307692307692321,57.27272727272727h41.53846153846154v242.72727272727272h-41.53846153846154Z" fill="#f58518"/><path aria-label="year: 2011; Sum of cases: 79; type: total" role="graphics-symbol" aria-roledescription="bar" d="M48.461538461538474,84.54545454545456h41.53846153846154v215.45454545454544h-41.53846153846154Z" fill="#f58518"/><path aria-label="year: 2012; Sum of cases: 86; type: total" role="graphics-symbol" aria-roledescription="bar" d="M94.61538461538463,65.45454545454544h41.53846153846154v234.54545454545456h-41.53846153846154Z" fill="#f58518"/><path aria-label="year: 2013; Sum of cases: 45; type: total" role="graphics-symbol" aria-roledescription="bar" d="M140.76923076923077,177.27272727272725h41.53846153846154v122.72727272727275h-41.53846153846154Z" fill="#f58518"/><path aria-label="year: 2014; Sum of cases: 56; type: total" role="graphics-symbol" aria-roledescription="bar" d="M186.92307692307693,147.27272727272728h41.53846153846154v152.72727272727272h-41.53846153846154Z" fill="#f58518"/><path aria-label="year: 2015; Sum of cases: 45; type: total" role="graphics-symbol" aria-roledescription="bar" d="M233.0769230769231,177.27272727272725h41.53846153846154v122.72727272727275h-41.53846153846154Z" fill="#f58518"/><path aria-label="year: 2016; Sum of cases: 77; type: total" role="graphics-symbol" aria-roledescription="bar" d="M279.2307692307692,90.00000000000001h41.53846153846154v210h-41.53846153846154Z" fill="#f58518"/><path aria-label="year: 2017; Sum of cases: 91; type: total" role="graphics-symbol" aria-roledescription="bar" d="M325.3846153846154,51.81818181818182h41.53846153846154v248.1818181818182h-41.53846153846154Z" fill="#f58518"/><path aria-label="year: 2018; Sum of cases: 46; type: total" role="graphics-symbol" aria-roledescription="bar" d="M371.53846153846155,174.54545454545453h41.53846153846154v125.45454545454547h-41.53846153846154Z" fill="#f58518"/><path aria-label="year: 2019; Sum of cases: 61; type: total" role="graphics-symbol" aria-roledescription="bar" d="M417.6923076923077,133.63636363636363h41.53846153846154v166.36363636363637h-41.53846153846154Z" fill="#f58518"/><path aria-label="year: 2020; Sum of cases: 43; type: total" role="graphics-symbol" aria-roledescription="bar" d="M463.84615384615387,182.72727272727275h41.53846153846154v117.27272727272725h-41.53846153846154Z" fill="#f58518"/><path aria-label="year: 2021; Sum of cases: 52; type: total" role="graphics-symbol" aria-roledescription="bar" d="M510,158.1818181818182h41.53846153846154v141.8181818181818h-41.53846153846154Z" fill="#f58518"/><path aria-label="year: 2022; Sum of cases: 54; type: total" role="graphics-symbol" aria-roledescription="bar" d="M556.1538461538462,152.72727272727272h41.53846153846154v147.27272727272728h-41.53846153846154Z" fill="#f58518"/><path aria-label="year: 2010; Sum of cases: 15; type: Chevron" role="graphics-symbol" aria-roledescription="bar" d="M2.307692307692321,16.36363636363637h41.53846153846154v40.90909090909091h-41.53846153846154Z" fill="#4c78a8"/><path aria-label="year: 2011; Sum of cases: 9; type: Chevron" role="graphics-symbol" aria-roledescription="bar" d="M48.461538461538474,59.999999999999986h41.53846153846154v24.545454545454575h-41.53846153846154Z" fill="#4c78a8"/><path aria-label="year: 2012; Sum of cases: 13; type: Chevron" role="graphics-symbol" aria-roledescription="bar" d="M94.61538461538463,29.999999999999993h41.53846153846154v35.454545454545446h-41.53846153846154Z" fill="#4c78a8"/><path aria-label="year: 2013; Sum of cases: 5; type: Chevron" role="graphics-symbol" aria-roledescription="bar" d="M140.76923076923077,163.63636363636363h41.53846153846154v13.636363636363626h-41.53846153846154Z" fill="#4c78a8"/><path aria-label="year: 2014; Sum of cases: 10; type: Chevron" role="graphics-symbol" aria-roledescription="bar" d="M186.92307692307693,120h41.53846153846154v27.27272727272728h-41.53846153846154Z" fill="#4c78a8"/><path aria-label="year: 2015; Sum of cases: 12; type: Chevron" role="graphics-symbol" aria-roledescription="bar" d="M233.0769230769231,144.54545454545453h41.53846153846154v32.72727272727272h-41.53846153846154Z" fill="#4c78a8"/><path aria-label="year: 2016; Sum of cases: 18; type: Chevron" role="graphics-symbol" aria-roledescription="bar" d="M279.2307692307692,40.90909090909091h41.53846153846154v49.09090909090911h-41.53846153846154Z" fill="#4c78a8"/><path aria-label="year: 2017; Sum of cases: 15; type: Chevron" role="graphics-symbol" aria-roledescription="bar" d="M325.3846153846154,10.909090909090914h41.53846153846154v40.90909090909091h-41.53846153846154Z" fill="#4c78a8"/><path aria-label="year: 2018; Sum of cases: 10; type: Chevron" role="graphics-symbol" aria-roledescription="bar" d="M371.53846153846155,147.27272727272728h41.53846153846154v27.272727272727252h-41.53846153846154Z" fill="#4c78a8"/><path aria-label="year: 2019; Sum of cases: 24; type: Chevron" role="graphics-symbol" aria-roledescription="bar" d="M417.6923076923077,68.18181818181819h41.53846153846154v65.45454545454544h-41.53846153846154Z" fill="#4c78a8"/><path aria-label="year: 2020; Sum of cases: 15; type: Chevron" role="graphics-symbol" aria-roledescription="bar" d="M463.84615384615387,141.81818181818184h41.53846153846154v40.90909090909091h-41.53846153846154Z" fill="#4c78a8"/><path aria-label="year: 2021; Sum of cases: 19; type: Chevron" role="graphics-symbol" aria-roledescription="bar" d="M510,106.36363636363635h41.53846153846154v51.81818181818184h-41.53846153846154Z" fill="#4c78a8"/><path aria-label="year: 2022; Sum of cases: 23; type: Chevron" role="graphics-symbol" aria-roledescription="bar" d="M556.1538461538462,90.00000000000001h41.53846153846154v62.727272727272705h-41.53846153846154Z" fill="#4c78a8"/></g><g class="mark-group role-legend" role="graphics-symbol" aria-roledescription="legend" aria-label="Symbol legend titled 'type' for fill color with 2 values: Chevron, total"><g transform="translate(618,0)"><path class="background" aria-hidden="true" d="M0,0h54v40h-54Z" pointer-events="none"/><g><g class="mark-group role-legend-entry"><g transform="translate(0,16)"><path class="background" aria-hidden="true" d="M0,0h0v0h0Z" pointer-events="none"/><g><g class="mark-group role-scope" role="graphics-object" aria-roledescription="group mark container"><g transform="translate(0,0)"><path class="background" aria-hidden="true" d="M0,0h53.7978515625v11h-53.7978515625Z" pointer-events="none" opacity="1"/><g><g class="mark-symbol role-legend-symbol" pointer-events="none"><path transform="translate(6,6)" d="M-5,-5h10v10h-10Z" fill="#4c78a8" stroke-width="1.5" opacity="1"/></g><g class="mark-text role-legend-label" pointer-events="none"><text text-anchor="start" transform="translate(16,9)" font-family="sans-serif" font-size="10px" fill="#000" opacity="1">Chevron</text></g></g><path class="foreground" aria-hidden="true" d="" pointer-events="none" display="none"/></g><g transform="translate(0,13)"><path class="background" aria-hidden="true" d="M0,0h53.7978515625v11h-53.7978515625Z" pointer-events="none" opacity="1"/><g><g class="mark-symbol role-legend-symbol" pointer-events="none"><path transform="translate(6,6)" d="M-5,-5h10v10h-10Z" fill="#f58518" stroke-width="1.5" opacity="1"/></g><g class="mark-text role-legend-label" pointer-events="none"><text text-anchor="start" transform="translate(16,9)" font-family="sans-serif" font-size="10px" fill="#000" opacity="1">total</text></g></g><path class="foreground" aria-hidden="true" d="" pointer-events="none" display="none"/></g></g></g><path class="foreground" aria-hidden="true" d="" pointer-events="none" display="none"/></g></g><g class="mark-text role-legend-title" pointer-events="none"><text text-anchor="start" transform="translate(0,9)" font-family="sans-serif" font-size="11px" font-weight="bold" fill="#000" opacity="1">type</text></g></g><path class="foreground" aria-hidden="true" d="" pointer-events="none" display="none"/></g></g><g class="mark-group role-title"><g transform="translate(300,-22)"><path class="background" aria-hidden="true" d="M0,0h0v0h0Z" pointer-events="none"/><g><g class="mark-text role-title-text" role="graphics-symbol" aria-roledescription="title" aria-label="Title text 'Annual Cases by Type'" pointer-events="none"><text text-anchor="middle" transform="translate(0,10)" font-family="sans-serif" font-size="13px" font-weight="bold" fill="#000" opacity="1">Annual Cases by Type</text></g></g><path class="foreground" aria-hidden="true" d="" pointer-events="none" display="none"/></g></g></g><path class="foreground" aria-hidden="true" d="" display="none"/></g></g></g></svg>